<?xml version="1.0" encoding="UTF-8"?>
<svg width="32" height="32" viewBox="0 0 32 32" fill="none" xmlns="http://www.w3.org/2000/svg">
  <!-- Background circle with gradient -->
  <circle cx="16" cy="16" r="16" fill="url(#paint0_linear)"/>
  
  <!-- YS text -->
  <path d="M10.5 8L14.5 14L18.5 8H21L15.5 16V24H13.5V16L8 8H10.5Z" fill="white"/>
  <path d="M19 16C19 16 20.5 15.5 22 15.5C23.5 15.5 25 16 25 18C25 20 23.5 20.5 22 20.5C20.5 20.5 19 20 19 20L18.5 24C18.5 24 20.5 24.5 22 24.5C25 24.5 27 22 27 18C27 14 25 11.5 22 11.5C20.5 11.5 18.5 12 18.5 12L19 16Z" fill="white"/>
  
  <!-- Underline -->
  <rect x="8" y="25" width="16" height="1" fill="url(#paint1_linear)"/>
  
  <!-- Gradients -->
  <defs>
    <linearGradient id="paint0_linear" x1="0" y1="0" x2="32" y2="32" gradientUnits="userSpaceOnUse">
      <stop stop-color="#1F2341"/>
      <stop offset="1" stop-color="#0F1225"/>
    </linearGradient>
    <linearGradient id="paint1_linear" x1="8" y1="25.5" x2="24" y2="25.5" gradientUnits="userSpaceOnUse">
      <stop stop-color="#0EA5E9"/>
      <stop offset="1" stop-color="#D946EF"/>
    </linearGradient>
  </defs>
</svg> 