<?xml version="1.0" encoding="UTF-8"?>
<svg width="16" height="16" viewBox="0 0 16 16" fill="none" xmlns="http://www.w3.org/2000/svg">
  <!-- Background circle with gradient -->
  <circle cx="8" cy="8" r="8" fill="url(#paint0_linear)"/>
  
  <!-- YS text -->
  <path d="M5.25 4L7.25 7L9.25 4H10.5L7.75 8V12H6.75V8L4 4H5.25Z" fill="white"/>
  <path d="M9.5 8C9.5 8 10.25 7.75 11 7.75C11.75 7.75 12.5 8 12.5 9C12.5 10 11.75 10.25 11 10.25C10.25 10.25 9.5 10 9.5 10L9.25 12C9.25 12 10.25 12.25 11 12.25C12.5 12.25 13.5 11 13.5 9C13.5 7 12.5 5.75 11 5.75C10.25 5.75 9.25 6 9.25 6L9.5 8Z" fill="white"/>
  
  <!-- Underline -->
  <rect x="4" y="12.5" width="8" height="0.5" fill="url(#paint1_linear)"/>
  
  <!-- Gradients -->
  <defs>
    <linearGradient id="paint0_linear" x1="0" y1="0" x2="16" y2="16" gradientUnits="userSpaceOnUse">
      <stop stop-color="#1F2341"/>
      <stop offset="1" stop-color="#0F1225"/>
    </linearGradient>
    <linearGradient id="paint1_linear" x1="4" y1="12.75" x2="12" y2="12.75" gradientUnits="userSpaceOnUse">
      <stop stop-color="#0EA5E9"/>
      <stop offset="1" stop-color="#D946EF"/>
    </linearGradient>
  </defs>
</svg> 